<?xml version="1.0" encoding="UTF-8" standalone="no"?>
<svg width="48px" height="48px" viewBox="0 0 48 48" version="1.1" xmlns="http://www.w3.org/2000/svg" xmlns:xlink="http://www.w3.org/1999/xlink" xmlns:sketch="http://www.bohemiancoding.com/sketch/ns">
    <!-- Generator: Sketch 3.4.4 (17249) - http://www.bohemiancoding.com/sketch -->
    <title>Basket_8</title>
    <desc>Created with Sketch.</desc>
    <defs>
        <linearGradient x1="50%" y1="0%" x2="50%" y2="100%" id="linearGradient-1">
            <stop stop-color="#000000" stop-opacity="0" offset="0%"></stop>
            <stop stop-color="#000000" offset="100%"></stop>
        </linearGradient>
        <filter x="-50%" y="-50%" width="200%" height="200%" filterUnits="objectBoundingBox" id="filter-2">
            <feGaussianBlur stdDeviation="2.07261029" in="SourceGraphic" result="blur"></feGaussianBlur>
        </filter>
        <linearGradient x1="50%" y1="-25.3637695%" x2="50%" y2="115.036621%" id="linearGradient-3">
            <stop stop-color="#6441A5" offset="0%"></stop>
            <stop stop-color="#442260" offset="100%"></stop>
        </linearGradient>
        <path id="path-4" d="M0,0.297 L24.9983333,0.297 L24.9983333,22 L0,22 L0,0.297 Z"></path>
    </defs>
    <g id="Page-1" stroke="none" stroke-width="1" fill="none" fill-rule="evenodd" sketch:type="MSPage">
        <g id="Basket_8" sketch:type="MSArtboardGroup">
            <g id="Bulle-01" sketch:type="MSLayerGroup" transform="translate(2.000000, 4.000000)">
                <g id="Ombre" transform="translate(0.000000, 17.000000)" filter="url(#filter-2)" fill-opacity="0.75" fill="url(#linearGradient-1)" sketch:type="MSShapeGroup">
                    <g id="Triangle-1">
                        <path d="M24.9915435,22 L20.6717206,16.0416667 L13.9419313,16.0416667 C9.69459375,16.0416667 5.17564942,13.8782161 3.85271353,11.2177638 L0.673303794,4.82390288 C-0.651479741,2.15973488 2.65579674,0 8.06935076,0 L33.1122376,0 C38.521745,0 42.689631,2.16345054 42.4223052,4.82390288 L41.7798417,11.2177638 C41.5121427,13.8819318 37.8551594,16.0416667 33.6046447,16.0416667 L26.9554156,16.0416667 L24.9915435,22 Z"></path>
                    </g>
                </g>
                <g id="Bulle" transform="translate(2.000000, 0.000000)" stroke-width="0.5" stroke="#FFFFFF" fill="url(#linearGradient-3)" sketch:type="MSShapeGroup">
                    <g id="Triangle-1">
                        <path d="M23.6321839,29.1666667 L20.045977,40 L16.4597701,29.1666667 L9.00170731,29.1666667 C4.03020164,29.1666667 0,25.1417888 0,20.1578097 L0,9.00885696 C0,4.03340265 4.03700043,0 9.00170731,0 L30.9982927,0 C35.9697984,0 40,4.02487783 40,9.00885696 L40,20.1578097 C40,25.133264 35.9629996,29.1666667 30.9982927,29.1666667 L23.6321839,29.1666667 Z"></path>
                    </g>
                </g>
            </g>
            <g id="Page-1" sketch:type="MSLayerGroup" transform="translate(12.000000, 7.000000)">
                <mask id="mask-5" sketch:name="Clip 2" fill="white">
                    <use xlink:href="#path-4"></use>
                </mask>
                <g id="Clip-2"></g>
                <path d="M5.75533333,10.1040077 C6.35366667,10.4483923 7.11366667,10.2360077 7.45283333,9.62846923 L11.617,2.18654615 C11.9561667,1.57985385 11.747,0.808161538 11.1486667,0.461238462 C10.5511667,0.1177 9.79116667,0.330930769 9.45116667,0.937623077 L5.28783333,8.38039231 C4.94783333,8.98708462 5.15783333,9.75877692 5.75533333,10.1040077 L5.75533333,10.1040077 Z M17.5511667,9.74693077 C17.8761667,10.3629308 18.632,10.5922385 19.237,10.2613923 C19.8428333,9.93139231 20.0695,9.16393077 19.7436667,8.54962308 L15.7511667,1.01293077 C15.4253333,0.396084615 14.6703333,0.166776923 14.0645,0.495930769 C13.4595,0.827623077 13.2328333,1.59423846 13.5586667,2.21108462 L17.5511667,9.74693077 Z M18.9045,19.4709308 C18.8995,19.9007769 18.5528333,20.2443154 18.1295,20.2383923 C17.7061667,20.2350077 17.367,19.8830077 17.372,19.4531615 L17.4295,14.3957 C17.4345,13.9650077 17.782,13.6223154 18.2045,13.6273923 C18.6278333,13.6324692 18.9653333,13.9836231 18.962,14.4143154 L18.9045,19.4709308 Z M15.0736667,19.4260846 C15.0686667,19.8559308 14.722,20.1994692 14.2986667,20.1952385 C13.8745,20.1901615 13.5361667,19.8381615 13.5411667,19.4083154 L13.5978333,14.3500077 C13.6028333,13.9210077 13.9495,13.5766231 14.3736667,13.5817 C14.7961667,13.5867769 15.1353333,13.9387769 15.1303333,14.3694692 L15.0736667,19.4260846 Z M11.242,19.3812385 C11.237,19.8119308 10.8895,20.1546231 10.4678333,20.1495462 C10.0445,20.1444692 9.7045,19.7924692 9.7095,19.3626231 L9.767,14.3068538 C9.772,13.8770077 10.1195,13.5326231 10.5428333,13.5368538 C10.9653333,13.5410846 11.3045,13.8939308 11.2995,14.3246231 L11.242,19.3812385 Z M7.41116667,19.3363923 C7.40616667,19.7662385 7.0595,20.1106231 6.63616667,20.1047 C6.21283333,20.0996231 5.87283333,19.7476231 5.87866667,19.3186231 L5.93616667,14.2611615 C5.94116667,13.8304692 6.28866667,13.4877769 6.71116667,13.4920077 C7.1345,13.4970846 7.47283333,13.8490846 7.46866667,14.2789308 L7.41116667,19.3363923 Z M23.702,8.74085385 L21.092,8.70954615 C21.427,9.84000769 20.9103333,11.0787769 19.8295,11.6017 C18.6353333,12.1787769 17.207,11.6634692 16.637,10.4509308 L15.7928333,8.64777692 L9.23616667,8.57077692 L8.3495,10.3536231 C7.75366667,11.5526231 6.31366667,12.0340846 5.132,11.4299308 C4.06283333,10.8824692 3.577,9.63100769 3.93616667,8.50900769 L1.32533333,8.47854615 C0.602,8.46923846 0.00866666667,9.05816154 0.000333333333,9.79431538 C-0.008,10.5304692 0.572,11.1320846 1.29616667,11.1405462 L1.65283333,11.1439308 L3.67283333,19.7171615 L3.68866667,19.7882385 C3.68866667,19.7882385 3.70366667,21.8240846 6.00616667,21.8511615 C10.142,21.9002385 14.5836667,21.9518538 18.7195,22.0000846 C21.0211667,22.0263154 21.0828333,19.9938538 21.0828333,19.9938538 L21.1011667,19.9210846 L23.3161667,11.3994692 L23.6711667,11.4045462 C24.3961667,11.4121615 24.9895,10.8232385 24.9986667,10.0862385 C25.0061667,9.35177692 24.4261667,8.74846923 23.702,8.74085385 L23.702,8.74085385 Z" id="Fill-1" fill="#FFFFFF" sketch:type="MSShapeGroup" mask="url(#mask-5)"></path>
            </g>
        </g>
    </g>
</svg>