<?xml version="1.0" encoding="UTF-8" standalone="no"?>
<svg width="48px" height="48px" viewBox="0 0 48 48" version="1.1" xmlns="http://www.w3.org/2000/svg" xmlns:xlink="http://www.w3.org/1999/xlink" xmlns:sketch="http://www.bohemiancoding.com/sketch/ns">
    <!-- Generator: Sketch 3.4.4 (17249) - http://www.bohemiancoding.com/sketch -->
    <title>Shopping_Bag_8</title>
    <desc>Created with Sketch.</desc>
    <defs>
        <linearGradient x1="50%" y1="0%" x2="50%" y2="100%" id="linearGradient-1">
            <stop stop-color="#000000" stop-opacity="0" offset="0%"></stop>
            <stop stop-color="#000000" offset="100%"></stop>
        </linearGradient>
        <filter x="-50%" y="-50%" width="200%" height="200%" filterUnits="objectBoundingBox" id="filter-2">
            <feGaussianBlur stdDeviation="2.07261029" in="SourceGraphic" result="blur"></feGaussianBlur>
        </filter>
        <linearGradient x1="50%" y1="-25.3637695%" x2="50%" y2="115.036621%" id="linearGradient-3">
            <stop stop-color="#6441A5" offset="0%"></stop>
            <stop stop-color="#442260" offset="100%"></stop>
        </linearGradient>
        <path id="path-4" d="M0,0.0490677966 L17.9728235,0.0490677966 L17.9728235,21 L0,21 L0,0.0490677966 Z"></path>
    </defs>
    <g id="Page-1" stroke="none" stroke-width="1" fill="none" fill-rule="evenodd" sketch:type="MSPage">
        <g id="Shopping_Bag_8" sketch:type="MSArtboardGroup">
            <g id="Bulle-01" sketch:type="MSLayerGroup" transform="translate(2.000000, 4.000000)">
                <g id="Ombre" transform="translate(0.000000, 17.000000)" filter="url(#filter-2)" fill-opacity="0.75" fill="url(#linearGradient-1)" sketch:type="MSShapeGroup">
                    <g id="Triangle-1">
                        <path d="M24.9915435,22 L20.6717206,16.0416667 L13.9419313,16.0416667 C9.69459375,16.0416667 5.17564942,13.8782161 3.85271353,11.2177638 L0.673303794,4.82390288 C-0.651479741,2.15973488 2.65579674,0 8.06935076,0 L33.1122376,0 C38.521745,0 42.689631,2.16345054 42.4223052,4.82390288 L41.7798417,11.2177638 C41.5121427,13.8819318 37.8551594,16.0416667 33.6046447,16.0416667 L26.9554156,16.0416667 L24.9915435,22 Z"></path>
                    </g>
                </g>
                <g id="Bulle" transform="translate(2.000000, 0.000000)" stroke-width="0.5" stroke="#FFFFFF" fill="url(#linearGradient-3)" sketch:type="MSShapeGroup">
                    <g id="Triangle-1">
                        <path d="M23.6321839,29.1666667 L20.045977,40 L16.4597701,29.1666667 L9.00170731,29.1666667 C4.03020164,29.1666667 0,25.1417888 0,20.1578097 L0,9.00885696 C0,4.03340265 4.03700043,0 9.00170731,0 L30.9982927,0 C35.9697984,0 40,4.02487783 40,9.00885696 L40,20.1578097 C40,25.133264 35.9629996,29.1666667 30.9982927,29.1666667 L23.6321839,29.1666667 Z"></path>
                    </g>
                </g>
            </g>
            <g id="Page-1" sketch:type="MSLayerGroup" transform="translate(15.000000, 8.000000)">
                <mask id="mask-5" sketch:name="Clip 2" fill="white">
                    <use xlink:href="#path-4"></use>
                </mask>
                <g id="Clip-2"></g>
                <path d="M0,18.8163559 L0,6.40957627 L2.97058824,7.5790678 L2.97058824,20.6722881 L0,18.8163559 Z M6.44594118,1.63932203 C5.15958824,1.99749153 4.17411765,3.16271186 4.17141176,4.41930508 L4.16841176,5.80322034 L2.60041176,5.99405085 L2.60041176,4.61013559 C2.60517647,2.3979661 4.53158824,0.371186441 6.90217647,0.0832372881 C7.34935294,0.0289322034 7.78041176,0.0404745763 8.18547059,0.109576271 C7.52423529,0.50120339 6.93194118,1.01394915 6.44594118,1.63932203 L6.44594118,1.63932203 Z M11.0785294,0.235677966 C8.70794118,0.523627119 6.78152941,2.55040678 6.77676471,4.76257627 L6.77382353,6.14649153 L8.34476471,5.95566102 L8.34776471,4.57174576 C8.35076471,3.17110169 9.57452941,1.88323729 11.0753529,1.70089831 C12.5765882,1.51850847 13.7954706,2.50962712 13.7924706,3.91027119 L13.7894706,5.29418644 L15.3604706,5.10335593 L15.3634706,3.71938983 C15.3682353,1.50727119 13.4496471,-0.0523728814 11.0785294,0.235677966 L11.0785294,0.235677966 Z M17.9728235,6.00345763 L4.42147059,7.689 L4.42147059,21 L17.9728235,19.2127627 L17.9728235,6.00345763 Z" id="Fill-1" fill="#FFFFFF" sketch:type="MSShapeGroup" mask="url(#mask-5)"></path>
            </g>
        </g>
    </g>
</svg>